<?xml version="1.0" encoding="UTF-8" standalone="no"?>
<!DOCTYPE svg PUBLIC "-//W3C//DTD SVG 1.1//EN" "http://www.w3.org/Graphics/SVG/1.1/DTD/svg11.dtd">
<svg width="100%" height="100%" viewBox="0 0 512 512" version="1.1" xmlns="http://www.w3.org/2000/svg" xmlns:xlink="http://www.w3.org/1999/xlink" xml:space="preserve" xmlns:serif="http://www.serif.com/" style="fill-rule:evenodd;clip-rule:evenodd;stroke-linejoin:round;stroke-miterlimit:2;">
    <g>
        <path d="M483.7,417.8L158.3,417.8L148.8,377.6L436.4,377.6C441.2,377.6 445.4,374.3 446.5,369.6L485,206.9C486.2,203.2 484.2,194.2 474.9,194.1L105.4,194L83.7,102.3C82.6,97.6 78.4,94.3 73.6,94.3L28.3,94.3C22.5,94.3 17.9,99 17.9,104.7C17.9,110.5 22.6,115.1 28.3,115.1L65.1,115.1L139.9,430.5C141,435.2 145.2,438.5 150,438.5L190.8,438.5C184.4,445.1 180.4,454.2 180.4,464.1C180.4,484.4 196.9,500.9 217.2,500.9C237.5,500.9 254,484.4 254,464.1C254,454.2 250,445.1 243.6,438.5L364.5,438.5C358.1,445.1 354.1,454.2 354.1,464.1C354.1,484.4 370.6,500.9 390.9,500.9C411.2,500.9 427.7,484.4 427.7,464.1C427.7,454.2 423.7,445.1 417.3,438.5L483.8,438.5C489.6,438.5 494.2,433.8 494.2,428.1C494.1,422.4 489.5,417.8 483.7,417.8ZM110.2,215L461.7,215L428.1,356.7L143.8,356.7L110.2,215ZM217.2,480.1C208.4,480.1 201.3,473 201.3,464.2C201.3,455.4 208.4,448.3 217.2,448.3C226,448.3 233.1,455.4 233.1,464.2C233.1,473 226,480.1 217.2,480.1ZM390.9,480.1C382.1,480.1 375,473 375,464.2C375,455.4 382.1,448.3 390.9,448.3C399.7,448.3 406.8,455.4 406.8,464.2C406.8,473 399.6,480.1 390.9,480.1Z" style="fill:#CCCCCC;fill-rule:nonzero;"/>
    </g>
</svg>
