<?xml version="1.0" encoding="UTF-8" standalone="no"?>
<!DOCTYPE svg PUBLIC "-//W3C//DTD SVG 1.1//EN" "http://www.w3.org/Graphics/SVG/1.1/DTD/svg11.dtd">
<svg width="100%" height="100%" viewBox="0 0 512 512" version="1.1" xmlns="http://www.w3.org/2000/svg" xmlns:xlink="http://www.w3.org/1999/xlink" xml:space="preserve" xmlns:serif="http://www.serif.com/" style="fill-rule:evenodd;clip-rule:evenodd;stroke-linejoin:round;stroke-miterlimit:2;">
    <g>
        <g transform="matrix(0.951831,0.591661,-0.590039,0.949222,181.596,-138.488)">
            <path d="M350.3,255.1C358.2,167.5 327.6,78.2 263.4,14C259.5,10.1 252.6,10.1 248.7,14C184.5,78.2 153.9,167.4 161.8,255.1C139.6,279 127.4,309.8 127.4,342.6C127.4,375.7 140,407.2 162.9,431.2C168.5,437.1 182.8,434.4 180.5,421.4C179.3,414.6 177.8,408 177.8,401.5C177.8,385.3 182.7,369.9 191.8,356.9C193.3,357.7 195,358.2 196.8,358.2L315.3,358.2C317.1,358.2 318.8,357.7 320.3,356.9C329.4,369.9 334.3,385.3 334.3,401.5C334.3,408 332.6,414.5 331.6,421.4C329.5,435.8 344.5,436.3 349.2,431.2C372,407.1 384.7,375.7 384.7,342.6C384.6,309.8 372.5,278.9 350.3,255.1ZM256,36.4C274.6,56.4 289.8,78.9 301.6,102.8L210.5,102.8C222.2,78.8 237.4,56.4 256,36.4ZM158,387.4C151.6,373.5 148.3,358.3 148.3,342.6C148.3,321.4 154.4,301.1 165.8,283.7C165.9,284.5 176.8,326.2 181,336.9C168.5,351.3 160.6,368.7 158,387.4ZM308.4,337.3L203.6,337.3C174.2,268.3 174.5,191.2 201.2,123.5L310.8,123.5C337.5,191.2 337.8,268.3 308.4,337.3ZM331.1,336.9C336.9,322 346.2,284.3 346.3,283.7C357.7,301 363.8,321.3 363.8,342.6C363.8,358.3 360.4,373.5 354.1,387.4C351.4,368.7 343.5,351.3 331.1,336.9Z" style="fill:#CCCCCC;fill-rule:nonzero;"/>
        </g>
        <g transform="matrix(0.951831,0.591661,-0.590039,0.949222,181.596,-138.488)">
            <path d="M213.9,375.6C208.1,375.6 203.5,380.3 203.5,386L203.5,438.3C203.5,444.1 208.2,448.7 213.9,448.7C219.6,448.7 224.3,444 224.3,438.3L224.3,386C224.3,380.2 219.6,375.6 213.9,375.6Z" style="fill:#CCCCCC;fill-rule:nonzero;"/>
        </g>
        <g transform="matrix(0.951831,0.591661,-0.590039,0.949222,181.596,-138.488)">
            <path d="M256,375.6C253.1,375.6 250.5,376.8 248.6,378.7L248.5,378.8C247.3,380 246.4,381.6 245.9,383.4C245.7,384.3 245.5,385.2 245.5,386.2L245.5,490.7C245.5,491.5 245.6,492.3 245.8,493.1C246.9,497.7 251,501.1 255.9,501.1C260.8,501.1 264.9,497.7 266,493.1C266.2,492.3 266.3,491.5 266.3,490.7L266.3,386C266.3,385 266.2,384.1 265.9,383.2C264.8,378.8 260.8,375.6 256,375.6Z" style="fill:#CCCCCC;fill-rule:nonzero;"/>
        </g>
        <g transform="matrix(0.951831,0.591661,-0.590039,0.949222,181.596,-138.488)">
            <path d="M298.1,375.6C292.3,375.6 287.7,380.3 287.7,386L287.7,438.3C287.7,444.1 292.4,448.7 298.1,448.7C303.8,448.7 308.5,444 308.5,438.3L308.5,386C308.6,380.2 303.9,375.6 298.1,375.6Z" style="fill:#CCCCCC;fill-rule:nonzero;"/>
        </g>
    </g>
</svg>
