<?xml version="1.0" encoding="UTF-8" standalone="no"?>
<!DOCTYPE svg PUBLIC "-//W3C//DTD SVG 1.1//EN" "http://www.w3.org/Graphics/SVG/1.1/DTD/svg11.dtd">
<svg width="100%" height="100%" viewBox="0 0 512 512" version="1.1" xmlns="http://www.w3.org/2000/svg" xmlns:xlink="http://www.w3.org/1999/xlink" xml:space="preserve" xmlns:serif="http://www.serif.com/" style="fill-rule:evenodd;clip-rule:evenodd;stroke-linejoin:round;stroke-miterlimit:2;">
    <g>
        <path d="M21.4,432.5L97.5,432.5C103.3,432.5 107.9,427.8 107.9,422.1L107.9,116C107.9,110.2 103.2,105.6 97.5,105.6L21.4,105.6C15.6,105.6 11,110.3 11,116L11,422.1C11,427.9 15.7,432.5 21.4,432.5ZM31.9,126.4L87.1,126.4L87.1,411.6L31.9,411.6L31.9,126.4Z" style="fill:#CCCCCC;fill-rule:nonzero;"/>
        <path d="M152.5,432.5L228.6,432.5C234.4,432.5 239,427.8 239,422.1L239,209.3C239,203.5 234.3,198.9 228.6,198.9L152.5,198.9C146.7,198.9 142.1,203.6 142.1,209.3L142.1,422.1C142,427.9 146.7,432.5 152.5,432.5ZM162.9,219.8L218.1,219.8L218.1,411.7L162.9,411.7L162.9,219.8Z" style="fill:#CCCCCC;fill-rule:nonzero;"/>
        <path d="M283.5,432.5L359.6,432.5C365.4,432.5 370,427.8 370,422.1L370,46.3C370,40.5 365.3,35.9 359.6,35.9L283.5,35.9C277.7,35.9 273.1,40.6 273.1,46.3L273.1,422.1C273.1,427.9 277.7,432.5 283.5,432.5ZM293.9,56.7L349.1,56.7L349.1,411.7L293.9,411.7L293.9,56.7Z" style="fill:#CCCCCC;fill-rule:nonzero;"/>
        <path d="M490.6,152.7L414.5,152.7C408.7,152.7 404.1,157.4 404.1,163.1L404.1,422.1C404.1,427.9 408.8,432.5 414.5,432.5L490.6,432.5C496.4,432.5 501,427.8 501,422.1L501,163.1C501,157.4 496.3,152.7 490.6,152.7ZM480.1,411.7L424.9,411.7L424.9,173.6L480.1,173.6L480.1,411.7Z" style="fill:#CCCCCC;fill-rule:nonzero;"/>
        <path d="M490.6,455.3L21.4,455.3C15.6,455.3 11,460 11,465.7C11,471.4 15.7,476.1 21.4,476.1L490.5,476.1C496.3,476.1 500.9,471.4 500.9,465.7C500.9,460 496.3,455.3 490.6,455.3Z" style="fill:#CCCCCC;fill-rule:nonzero;"/>
    </g>
</svg>
