<?xml version="1.0" encoding="UTF-8" standalone="no"?>
<!DOCTYPE svg PUBLIC "-//W3C//DTD SVG 1.1//EN" "http://www.w3.org/Graphics/SVG/1.1/DTD/svg11.dtd">
<svg width="100%" height="100%" viewBox="0 0 490 490" version="1.1" xmlns="http://www.w3.org/2000/svg" xmlns:xlink="http://www.w3.org/1999/xlink" xml:space="preserve" xmlns:serif="http://www.serif.com/" style="fill-rule:evenodd;clip-rule:evenodd;stroke-linejoin:round;stroke-miterlimit:2;">
    <g transform="matrix(1,0,0,1,-11,-11)">
        <g>
            <path d="M108.9,206.6C103.1,206.6 98.5,211.3 98.5,217L98.5,256.3C98.5,262.1 103.2,266.7 108.9,266.7C114.7,266.7 119.3,262 119.3,256.3L119.3,217C119.3,211.2 114.7,206.6 108.9,206.6Z" style="fill:#CCCCCC;fill-rule:nonzero;"/>
            <path d="M161.4,186.2C155.6,186.2 151,190.9 151,196.6L151,256.2C151,262 155.7,266.6 161.4,266.6C167.1,266.6 171.8,261.9 171.8,256.2L171.8,196.6C171.8,190.9 167.2,186.2 161.4,186.2Z" style="fill:#CCCCCC;fill-rule:nonzero;"/>
            <path d="M213.9,155.4C208.1,155.4 203.5,160.1 203.5,165.8L203.5,256.2C203.5,262 208.2,266.6 213.9,266.6C219.6,266.6 224.3,261.9 224.3,256.2L224.3,165.8C224.3,160.1 219.7,155.4 213.9,155.4Z" style="fill:#CCCCCC;fill-rule:nonzero;"/>
            <path d="M266.4,108.7C260.6,108.7 256,113.4 256,119.1L256,256.3C256,262.1 260.7,266.7 266.4,266.7C272.2,266.7 276.8,262 276.8,256.3L276.8,119.1C276.8,113.3 272.2,108.7 266.4,108.7Z" style="fill:#CCCCCC;fill-rule:nonzero;"/>
            <path d="M483.7,400.3L347.1,263.7C358.1,240.7 364.3,214.9 364.3,187.7C364.3,90.3 285.1,11 187.6,11C90.2,11 11,90.3 11,187.7C11,285.1 90.2,364.3 187.6,364.3C214.8,364.3 240.6,358.1 263.6,347.1L400.2,483.7C436.8,516.2 473.2,493.4 483.7,483.7C492.1,475.9 517.1,437.7 483.7,400.3ZM187.6,343.5C101.7,343.5 31.8,273.6 31.8,187.7C31.8,101.8 101.7,31.9 187.6,31.9C273.5,31.9 343.4,101.8 343.4,187.7C343.5,273.6 273.6,343.5 187.6,343.5ZM469,469C454.1,483.9 429.9,483.9 415,469L282.6,336.6C304.3,322.7 322.7,304.3 336.6,282.6L469,415C490.3,438.3 476.2,461.8 469,469Z" style="fill:#CCCCCC;fill-rule:nonzero;"/>
        </g>
    </g>
</svg>
